<svg xmlns="http://www.w3.org/2000/svg" width="2560" height="1661" viewBox="0 0 2560 1661">
  <defs>
    <style>
      .cls-1 {
        fill: #fdd842;
      }

      .cls-1, .cls-2, .cls-3 {
        fill-rule: evenodd;
      }

      .cls-2 {
        fill: #303030;
      }

      .cls-3 {
        fill: #fff;
      }
    </style>
  </defs>
  <path id="Фигура_1" data-name="Фигура 1" class="cls-1" d="M381,1039L547,566h36l173,473H717L674,925H460l-39,114H381Z"/>
  <path id="Фигура_3" data-name="Фигура 3" class="cls-1" d="M1108,724V694H926S760.755,706.3,762,871c0,0-.4,66.138,49,117,0,0,39.141,38.82,81,48s47.335,1.61,60,5,48.04,18.93,58,55c0,0,13.06,66.55-58,91,0,0-79.023,14.33-94-75H825s-12,82.58,82,108c0,0,69.433,18.97,122-41,0,0,65.12-99.44-47-150,0,0,108.3-6.62,130-153,0,0,10.9-109.862-101-153Z"/>
  <path id="Фигура_3-2" data-name="Фигура 3" class="cls-1" d="M1464.34,2203.65V2199h-28.06s-25.47,1.91-25.28,27.44a28.354,28.354,0,0,0,7.55,18.15s6.04,6.02,12.49,7.44,7.3,0.25,9.25.77,7.41,2.94,8.94,8.53c0,0,2.02,10.32-8.94,14.11,0,0-12.18,2.22-14.49-11.63h-5.09s-1.85,12.81,12.64,16.75a19.3,19.3,0,0,0,18.81-6.36s10.04-15.42-7.24-23.26c0,0,16.69-1.02,20.04-23.72,0,0,1.68-17.03-15.57-23.72Z"/>
  <path id="Фигура_5" data-name="Фигура 5" class="cls-1" d="M1178,783V694h-33v343h34V850s11.54-92.764,108-120c0,0,65.01-17.075,123,33,0,0,37.27,35.154,46,87v189h35V852s-3.52-83.584-57-120c0,0-29.69-33.835-100-41,0,0-54.16-2.359-89,22S1202.15,749.711,1178,783Z"/>
  <path id="Фигура_5-2" data-name="Фигура 5" class="cls-1" d="M1475.05,2213.02v-13.55H1470v52.23h5.21v-28.48s1.77-14.12,16.54-18.27a22.162,22.162,0,0,1,18.84,5.02,26.1,26.1,0,0,1,7.05,13.25V2252H1523v-28.47s-0.54-12.73-8.73-18.28c0,0-4.55-5.15-15.32-6.24,0,0-8.3-.36-13.63,3.35S1478.75,2207.95,1475.05,2213.02Z"/>
  <path id="Фигура_6" data-name="Фигура 6" class="cls-1" d="M1827,938l23,23s-39.73,54.23-86,69c0,0-69.96,24.46-126-1,0,0-66.62-25.42-91-80,0,0-36.31-55.549-14-132,0,0,3.75-35.241,52-83,0,0,38.09-35.224,101-43,0,0,54.01-5.606,110,27,0,0,42.94,28.081,56,58L1633,987s30.2,29.59,108,12C1741,999,1787.78,989.793,1827,938Z"/>
  <path id="Фигура_7" data-name="Фигура 7" class="cls-2" d="M1610,969l194-191s-35.66-53.989-111-51c0,0-56.02,5.252-78,27,0,0-52.82,45.454-55,104C1560,858,1556.7,935.812,1610,969Z"/>
  <path id="Фигура_41" data-name="Фигура 41" class="cls-2" d="M1975-480L573,771"/>
  <path id="Фигура_32" data-name="Фигура 32" class="cls-3" d="M2605,310"/>
  <path id="Фигура_6-2" data-name="Фигура 6" class="cls-1" d="M1541.11,1521.84l9.1,9s-15.71,21.23-34.01,27.01c0,0-27.66,9.58-49.82-.39,0,0-26.34-9.95-35.98-31.32,0,0-14.35-21.74-5.53-51.67,0,0,1.48-13.79,20.56-32.49,0,0,15.06-13.79,39.93-16.83,0,0,21.36-2.2,43.5,10.57,0,0,16.97,10.99,22.14,22.7l-86.59,82.6s11.94,11.58,42.7,4.7C1507.11,1545.72,1525.61,1542.11,1541.11,1521.84Z"/>
  <path id="Фигура_7-2" data-name="Фигура 7" class="cls-2" d="M1455.31,1533.97l76.71-74.77s-14.1-21.13-43.89-19.96c0,0-22.15,2.06-30.84,10.57,0,0-20.89,17.79-21.75,40.71C1435.54,1490.52,1434.24,1520.98,1455.31,1533.97Z"/>
  <path id="Фигура_6-3" data-name="Фигура 6" class="cls-1" d="M1008.11,1521.84l9.1,9s-15.71,21.23-34.006,27.01c0,0-27.662,9.58-49.82-.39,0,0-26.344-9.95-35.982-31.32,0,0-14.357-21.74-5.535-51.67,0,0,1.482-13.79,20.561-32.49,0,0,15.062-13.79,39.935-16.83,0,0,21.356-2.2,43.494,10.57,0,0,16.973,10.99,22.143,22.7l-86.593,82.6s11.94,11.58,42.7,4.7C974.11,1545.72,992.606,1542.11,1008.11,1521.84Z"/>
  <path id="Фигура_7-3" data-name="Фигура 7" class="cls-2" d="M922.313,1533.97l76.708-74.77s-14.1-21.13-43.89-19.96c0,0-22.152,2.06-30.841,10.57,0,0-20.887,17.79-21.748,40.71C902.542,1490.52,901.237,1520.98,922.313,1533.97Z"/>
  <path id="Фигура_42" data-name="Фигура 42" class="cls-2" d="M1184-198l327,9"/>
  <path id="Фигура_6-4" data-name="Фигура 6" class="cls-1" d="M873.115,1521.84l9.094,9s-15.709,21.23-34,27.01c0,0-27.662,9.58-49.82-.39,0,0-26.344-9.95-35.982-31.32,0,0-14.357-21.74-5.535-51.67,0,0,1.482-13.79,20.561-32.49,0,0,15.062-13.79,39.935-16.83,0,0,21.356-2.2,43.494,10.57,0,0,16.977,10.99,22.143,22.7l-86.593,82.6s11.94,11.58,42.7,4.7C839.11,1545.72,857.606,1542.11,873.115,1521.84Z"/>
  <path id="Фигура_7-4" data-name="Фигура 7" class="cls-2" d="M787.313,1533.97l76.708-74.77s-14.1-21.13-43.89-19.96c0,0-22.152,2.06-30.841,10.57,0,0-20.887,17.79-21.748,40.71C767.542,1490.52,766.237,1520.98,787.313,1533.97Z"/>
  <path id="Фигура_26" data-name="Фигура 26" class="cls-1" d="M1275,1607c1.5,1.13,14,0,14,0v-78s15.09,34.24,55,34,67.51-35.09,67-68-25.28-68.22-65-69-54.78,28.72-57,34,0-33,0-33h-15S1273.5,1605.87,1275,1607Z"/>
  <path id="Фигура_28" data-name="Фигура 28" class="cls-1" d="M1674,1468l10-10s-13.37-30.26-56-32-69.65,35-70,70,28.19,65.38,65,67,58.78-23.71,61-32l-10-10s-15.85,26.79-47,28-53.02-32.38-53-54,18.63-53.38,52-53S1669.85,1463.85,1674,1468Z"/>
  <path id="Фигура_29" data-name="Фигура 29" class="cls-1" d="M1146,1443l10,10s-17.45,18.6-16,42,18.37,50.69,54,52,54.5-30.91,55-53-21.3-46.01-45-49-31.93-11.61-36-18-8.48-20.25-3-31,13.63-18.96,28-19,22.61,6.9,27,15,4.73,10.95,5,14l-11,5s-1.76-7.15-3-9-7.36-11.23-16-11-19.28,8.84-18,18,7.95,15.4,14,18,32.67,6.16,38,12,21.54,8.79,30,29,5.33,41.27,2,49-13.93,25.37-22,30-18.89,16.22-43,16-49.82-14.26-57-27-14.78-22.58-15-43,7.29-31.6,11-37A101.453,101.453,0,0,1,1146,1443Z"/>
  <path id="Фигура_30" data-name="Фигура 30" class="cls-1" d="M-159,1552"/>
  <path id="Фигура_27" data-name="Фигура 27" class="cls-2" d="M1289,1496s1.8-40.26,34-50,44.97,1.93,51,6,21.71,20.35,21,41-8.12,40.9-27,49-39.92,6.69-50,0-21.96-18.41-25-28S1290.58,1501.28,1289,1496Z"/>
  <path id="Фигура_8" data-name="Фигура 8" class="cls-1" d="M1869,692v35h248l-255,312h314v-33H1926l252-314H1869Z"/>
  <path id="Фигура_8-2" data-name="Фигура 8" class="cls-1" d="M1027.06,2199v5.45h37.67L1026,2253h47.7v-5.14h-37.98L1074,2199h-46.94Z"/>
  <path id="Фигура_9" data-name="Фигура 9" class="cls-1" d="M1190,512s169.42,38.707,314-28c0,0-114.69-45-238-41,0,0-153.05,7.845-196,26l-4-12s185.74-58.579,395-11c0,0-151.03-44.884-215-38,0,0-65.99-.52-124,8,0,0-51.52,9.041-64,14s-64-143-64-143,49.9,61.948,74,64c0,0,32.92,2.628,53-35s17.97-131.5,13-148c0,0-7.15,91.378-13,103,0,0-7.7,50.674-28,60,0,0-12.04,9.681-27,6,0,0-42.48-15.9-72-71,0,0-52.09-80.923-61-88,0,0,34.429,74.986,48,110s32.75,91.071,38,109,21.41,60.092,36,103c0,0,49.96-15.373,84-19s82.88-9.839,97-9,71.33-2.488,86,0,102.99,10.674,112,14c0,0-50.28,15.424-67,17s-83.53,10.532-100,11S1222.15,513.237,1190,512Z"/>
  <path id="Фигура_10" data-name="Фигура 10" class="cls-1" d="M1035,308s18.21-61.561,22-126c0,0,34.5,59.963,58,89,0,0-5.5,33.439-15,44s-17.74,18.392-26,16a38.505,38.505,0,0,1-23-9C1040.6,312.989,1041.48,317.143,1035,308Z"/>
  <path id="Фигура_11" data-name="Фигура 11" class="cls-1" d="M1144,211s13.99,87.53,47,121c0,0,16.41,34.568,64,42s75.54-66.334,87-89,30.84-97.741,32-113c0,0-49.93,143.449-69,157,0,0-25.64,34.032-51,33,0,0-35.48-9.122-56-37s-34.56-61.642-39-73S1148.91,226.552,1144,211Z"/>
  <path id="Фигура_12" data-name="Фигура 12" class="cls-1" d="M1194,307s38.84-35.489,70-166h2s8.15,131.349,47,162c0,0-9.45,28.6-30,39,0,0-13.64,12.543-28,13,0,0-25.99-3.493-35-17C1220,338,1202.72,320.956,1194,307Z"/>
  <path id="Фигура_13" data-name="Фигура 13" class="cls-1" d="M1542,381l86-204-8-7s-81.73,131.432-99,141c0,0-32.63,42.385-69,48,0,0-26.41.088-46-34,0,0-14.49-32.811-19-57,0,0-8.51-38.138-10-63,0,0,1.02,47.577,5,65s10.5,45.582,14,52,19.69,30.949,31,37,24.24,9.076,35,8,44.62-22.334,58-37,74.76-93.314,77-100c0,0-18.14,40.727-23,53s-14.39,41.032-19,55S1547.67,357.014,1542,381Z"/>
  <path id="Фигура_14" data-name="Фигура 14" class="cls-1" d="M1405,307s26.56-21.766,43-56c0,0,32.46-58.553,34-70,0,0,11.27,55.832,21,64,0,0,18.12,37.862,26,45,0,0-6.11,14.262-22,28s-28.52,24.765-35,27-16.4,11.369-30,5-23.33-13.59-30-28C1412,322,1406.8,312.767,1405,307Z"/>
  <path id="Фигура_15" data-name="Фигура 15" class="cls-1" d="M1251,117s-6.07,9.884,0,17c0,0,5.16,7.136,13,6a16.609,16.609,0,0,0,16-7s5.16-8.828-1-17c0,0-4.08-6.326-10-8,0,0-9.57-.585-11,3a15.779,15.779,0,0,1,5,2s2.92,5.4,0,8c0,0-2.06,3.116-5,3,0,0-4.01-.437-5-3C1253,121,1251.11,118.634,1251,117Zm0,0s-6.07,9.884,0,17c0,0,5.16,7.136,13,6a16.609,16.609,0,0,0,16-7s5.16-8.828-1-17c0,0-4.08-6.326-10-8,0,0-9.57-.585-11,3a15.779,15.779,0,0,1,5,2s2.92,5.4,0,8c0,0-2.06,3.116-5,3,0,0-4.01-.437-5-3C1253,121,1251.11,118.634,1251,117Zm0,0s-6.07,9.884,0,17c0,0,5.16,7.136,13,6a16.609,16.609,0,0,0,16-7s5.16-8.828-1-17c0,0-4.08-6.326-10-8,0,0-9.57-.585-11,3a15.779,15.779,0,0,1,5,2s2.92,5.4,0,8c0,0-2.06,3.116-5,3,0,0-4.01-.437-5-3C1253,121,1251.11,118.634,1251,117Zm0,0s-6.07,9.884,0,17c0,0,5.16,7.136,13,6a16.609,16.609,0,0,0,16-7s5.16-8.828-1-17c0,0-4.08-6.326-10-8,0,0-9.57-.585-11,3a15.779,15.779,0,0,1,5,2s2.92,5.4,0,8c0,0-2.06,3.116-5,3,0,0-4.01-.437-5-3C1253,121,1251.11,118.634,1251,117Z"/>
  <path id="Фигура_15-2" data-name="Фигура 15" class="cls-1" d="M1469.63,159.7s-5.95,9.519,0,16.373c0,0,5.06,6.873,12.74,5.778a16.412,16.412,0,0,0,15.67-6.741s5.05-8.5-.98-16.373c0,0-4-6.093-9.79-7.705,0,0-9.38-.564-10.78,2.889a15.693,15.693,0,0,1,4.9,1.927s2.86,5.2,0,7.7c0,0-2.02,3-4.9,2.89,0,0-3.93-.421-4.9-2.89C1471.59,163.55,1469.74,161.272,1469.63,159.7Zm0,0s-5.95,9.519,0,16.373c0,0,5.06,6.873,12.74,5.778a16.412,16.412,0,0,0,15.67-6.741s5.05-8.5-.98-16.373c0,0-4-6.093-9.79-7.705,0,0-9.38-.564-10.78,2.889a15.693,15.693,0,0,1,4.9,1.927s2.86,5.2,0,7.7c0,0-2.02,3-4.9,2.89,0,0-3.93-.421-4.9-2.89C1471.59,163.55,1469.74,161.272,1469.63,159.7Zm0,0s-5.95,9.519,0,16.373c0,0,5.06,6.873,12.74,5.778a16.412,16.412,0,0,0,15.67-6.741s5.05-8.5-.98-16.373c0,0-4-6.093-9.79-7.705,0,0-9.38-.564-10.78,2.889a15.693,15.693,0,0,1,4.9,1.927s2.86,5.2,0,7.7c0,0-2.02,3-4.9,2.89,0,0-3.93-.421-4.9-2.89C1471.59,163.55,1469.74,161.272,1469.63,159.7Zm0,0s-5.95,9.519,0,16.373c0,0,5.06,6.873,12.74,5.778a16.412,16.412,0,0,0,15.67-6.741s5.05-8.5-.98-16.373c0,0-4-6.093-9.79-7.705,0,0-9.38-.564-10.78,2.889a15.693,15.693,0,0,1,4.9,1.927s2.86,5.2,0,7.7c0,0-2.02,3-4.9,2.89,0,0-3.93-.421-4.9-2.89C1471.59,163.55,1469.74,161.272,1469.63,159.7Z"/>
  <path id="Фигура_15-3" data-name="Фигура 15" class="cls-1" d="M1042.31,161.856s-5.23,8.6,0,14.789c0,0,4.44,6.207,11.19,5.219a14.228,14.228,0,0,0,13.78-6.089s4.44-7.679-.86-14.789c0,0-3.52-5.5-8.61-6.959,0,0-8.24-.509-9.47,2.61a13.427,13.427,0,0,1,4.3,1.74s2.52,4.7,0,6.959c0,0-1.77,2.71-4.3,2.61,0,0-3.46-.381-4.3-2.61C1044.04,165.336,1042.41,163.278,1042.31,161.856Zm0,0s-5.23,8.6,0,14.789c0,0,4.44,6.207,11.19,5.219a14.228,14.228,0,0,0,13.78-6.089s4.44-7.679-.86-14.789c0,0-3.52-5.5-8.61-6.959,0,0-8.24-.509-9.47,2.61a13.427,13.427,0,0,1,4.3,1.74s2.52,4.7,0,6.959c0,0-1.77,2.71-4.3,2.61,0,0-3.46-.381-4.3-2.61C1044.04,165.336,1042.41,163.278,1042.31,161.856Zm0,0s-5.23,8.6,0,14.789c0,0,4.44,6.207,11.19,5.219a14.228,14.228,0,0,0,13.78-6.089s4.44-7.679-.86-14.789c0,0-3.52-5.5-8.61-6.959,0,0-8.24-.509-9.47,2.61a13.427,13.427,0,0,1,4.3,1.74s2.52,4.7,0,6.959c0,0-1.77,2.71-4.3,2.61,0,0-3.46-.381-4.3-2.61C1044.04,165.336,1042.41,163.278,1042.31,161.856Zm0,0s-5.23,8.6,0,14.789c0,0,4.44,6.207,11.19,5.219a14.228,14.228,0,0,0,13.78-6.089s4.44-7.679-.86-14.789c0,0-3.52-5.5-8.61-6.959,0,0-8.24-.509-9.47,2.61a13.427,13.427,0,0,1,4.3,1.74s2.52,4.7,0,6.959c0,0-1.77,2.71-4.3,2.61,0,0-3.46-.381-4.3-2.61C1044.04,165.336,1042.41,163.278,1042.31,161.856Z"/>
  <path id="Фигура_16" data-name="Фигура 16" class="cls-1" d="M1117,166s-15.15-1.732-23-15c0,0-7.08-11.642-6-21s3.38-22.276,17-29,23.26-11.633,42-1c0,0,10.48,5.977,14,21,0,0-8.2-11.83-14-14s-15.86-6.6-27-4-16.97,12.3-20,19-3.03,18.737-1,25a22.85,22.85,0,0,0,10,13S1115.89,165.144,1117,166Z"/>
  <path id="Фигура_17" data-name="Фигура 17" class="cls-1" d="M1366.86,122.563s-5.65,6.392-5.29,14.824,6.58,17.114,13.96,20.1,22.3,4.183,28.91-3.424,12.19-17.2,8.82-28.78-16.29-18.618-22.73-17.507-11.7,1.764-14.02,4.331c0,0,12.42-.156,18.38,4.406s10.7,19.314,3.44,26.19-16.04,6.583-22.77,2.566a17.472,17.472,0,0,1-8.72-13.984A38.692,38.692,0,0,1,1366.86,122.563Zm0,0s-5.65,6.392-5.29,14.824,6.58,17.114,13.96,20.1,22.3,4.183,28.91-3.424,12.19-17.2,8.82-28.78-16.29-18.618-22.73-17.507-11.7,1.764-14.02,4.331c0,0,12.42-.156,18.38,4.406s10.7,19.314,3.44,26.19-16.04,6.583-22.77,2.566a17.472,17.472,0,0,1-8.72-13.984A38.692,38.692,0,0,1,1366.86,122.563Zm9.54,38.422s-13.26-1.542-20.11-13.138c0,0-6.17-10.175-5.21-18.339s3.01-19.434,14.95-25.275,20.39-10.1,36.77-.787c0,0,9.17,5.238,12.22,18.355,0,0-7.16-10.341-12.23-12.246s-13.87-5.793-23.63-3.546-14.88,10.7-17.55,16.541-2.7,16.346-.93,21.816a19.943,19.943,0,0,0,8.73,11.366S1375.43,160.236,1376.4,160.985Z"/>
  <path id="Фигура_39" data-name="Фигура 39" class="cls-1" d="M1367,123a19.193,19.193,0,0,0-5,15c0.81,9.534,9.16,22.359,26,22s26.3-16.777,26-28-10.11-23.442-21-24-16.03,4.083-16,4,10.74-.233,16,3,9.5,11.905,9,17-3.17,15.939-16,16-15.99-8.042-17-10S1366.47,135.019,1367,123Z"/>
  <path id="Фигура_39-2" data-name="Фигура 39" class="cls-1" d="M1106.87,123.359a22.1,22.1,0,0,0-5.76,17.287c0.94,10.988,10.55,25.768,29.94,25.354s30.3-19.335,29.95-32.269-11.65-27.016-24.19-27.659-18.46,4.706-18.43,4.61,12.38-.269,18.43,3.457,10.94,13.721,10.37,19.592-3.65,18.369-18.43,18.439-18.42-9.268-19.58-11.524S1106.26,137.21,1106.87,123.359Z"/>
  <path id="Фигура_39-3" data-name="Фигура 39" class="cls-1" d="M902.5,148.308a16.946,16.946,0,0,0-4.415,13.254c0.719,8.424,8.091,19.755,22.958,19.438S944.268,166.176,944,156.26s-8.932-20.712-18.544-21.2-14.151,3.608-14.128,3.534,9.487-.206,14.128,2.651,8.387,10.519,7.948,15.02-2.8,14.084-14.129,14.137-14.12-7.1-15.011-8.835S902.033,158.928,902.5,148.308Z"/>
  <path id="Фигура_39-4" data-name="Фигура 39" class="cls-1" d="M1628.82,158.241a16.485,16.485,0,0,0,4.1,12.953c5.37,6.219,17.65,10.925,29.17,2.184s9.81-24.932,3.93-32.584-18.86-11.2-26.7-6.1-9.08,10.922-9.1,10.851,7.35-5.581,12.63-5.984,12.61,3.488,14.84,7.282,5.84,12.681-3.05,19.195-15.17,2.473-16.86,1.621S1634.52,166.864,1628.82,158.241Z"/>
  <path id="Фигура_17-2" data-name="Фигура 17" class="cls-1" d="M1629.1,157.342s-0.82,7.225,3.55,12.953,12.95,8.784,19.56,7.283,17.61-7.922,18.5-16.464,0.12-17.979-7.89-24.446-20.46-5.108-24.41-1.2-7.3,6.929-7.67,9.856c0,0,8.59-6.151,14.98-5.859s16.9,8.316,15.19,16.664a15.477,15.477,0,0,1-14.64,12.879,14.954,14.954,0,0,1-12.92-5.546A33.174,33.174,0,0,1,1629.1,157.342Zm0,0s-0.82,7.225,3.55,12.953,12.95,8.784,19.56,7.283,17.61-7.922,18.5-16.464,0.12-17.979-7.89-24.446-20.46-5.108-24.41-1.2-7.3,6.929-7.67,9.856c0,0,8.59-6.151,14.98-5.859s16.9,8.316,15.19,16.664a15.477,15.477,0,0,1-14.64,12.879,14.954,14.954,0,0,1-12.92-5.546A33.174,33.174,0,0,1,1629.1,157.342Zm25.42,22.259s-10,5.374-20.44.588c0,0-9.28-4.12-12.6-10.306s-7.39-15.07-1.91-24.97,9.3-17,25.29-18.45c0,0,8.95-.795,17.48,6.907,0,0-10.04-3.756-14.51-2.623s-12.51,2.7-18.23,9.019-5.16,14.731-4.17,20.124,6.1,12.756,10.01,15.727a17.025,17.025,0,0,0,11.64,3.71S1653.48,179.55,1654.52,179.6Z"/>
  <path id="Фигура_18" data-name="Фигура 18" class="cls-1" d="M656,1562h16v-61h65v-15H671v-93H774v-15H656v184Z"/>
  <path id="Фигура_19" data-name="Фигура 19" class="cls-1" d="M1035,1562h15V1380h-15v182Z"/>
  <path id="Фигура_20" data-name="Фигура 20" class="cls-1" d="M1890,1562h14V1381h-14v181Z"/>
  <path id="Фигура_21" data-name="Фигура 21" class="cls-1" d="M1854,1562h15V1427h-16v32s-10.68-24.42-39-31-60.54,6.05-73,30-14.76,57.36,6,80,38.18,27.47,67,23,35.38-28.23,39-31Z"/>
  <path id="Фигура_21-2" data-name="Фигура 21" class="cls-1" d="M1611.11,2252.8H1617v-53.5h-6.28v12.68a23.32,23.32,0,0,0-15.32-12.29c-11.12-2.6-23.78,2.4-28.67,11.89s-5.8,22.74,2.36,31.71,14.99,10.89,26.31,9.12,13.89-11.19,15.32-12.29Z"/>
  <path id="Фигура_21-3" data-name="Фигура 21" class="cls-1" d="M1399.11,2251.8H1405v-53.5h-6.28v12.68a23.32,23.32,0,0,0-15.32-12.29c-11.12-2.6-23.78,2.4-28.67,11.89s-5.8,22.74,2.36,31.71,14.99,10.89,26.31,9.12,13.89-11.19,15.32-12.29Z"/>
  <path id="Фигура_21-4" data-name="Фигура 21" class="cls-1" d="M1330.11,2251.8H1336v-53.5h-6.28v12.68a23.32,23.32,0,0,0-15.32-12.29c-11.12-2.6-23.78,2.4-28.67,11.89s-5.8,22.74,2.36,31.71,14.99,10.89,26.31,9.12,13.89-11.19,15.32-12.29Z"/>
  <path id="Фигура_23" data-name="Фигура 23" class="cls-1" d="M1698,1562h14V1427h-15Z"/>
  <path id="Фигура_23-2" data-name="Фигура 23" class="cls-1" d="M1532.4,2252h5.6v-54h-6Z"/>
  <path id="Фигура_23-3" data-name="Фигура 23" class="cls-1" d="M1548.4,2252h5.6v-54h-6Z"/>
  <path id="Фигура_33" data-name="Фигура 33" class="cls-3" d="M2532,1119l170,16"/>
  <path id="Фигура_22" data-name="Фигура 22" class="cls-1" d="M1715,1383.27s0.25-7.28-6.81-9.72-13.28,3.8-13.19,8.07,0.59,8.12,6.05,10.46a9.426,9.426,0,0,0,10.57-1.7C1713.18,1389.07,1714.69,1387.16,1715,1383.27Zm0,0s0.25-7.28-6.81-9.72-13.28,3.8-13.19,8.07,0.59,8.12,6.05,10.46a9.426,9.426,0,0,0,10.57-1.7C1713.18,1389.07,1714.69,1387.16,1715,1383.27Z"/>
  <path id="Фигура_24" data-name="Фигура 24" class="cls-1" d="M1712,1398"/>
  <path id="Фигура_17-3" data-name="Фигура 17" class="cls-1" d="M1106,122s-6.44,7.339-6,17,7.55,19.593,16,23,25.47,4.734,33-4,13.89-19.738,10-33-18.66-21.29-26-20-13.36,2.052-16,5c0,0,14.18-.212,21,5s12.27,22.1,4,30-18.3,7.585-26,3-9.48-11.273-10-16A44.8,44.8,0,0,1,1106,122Zm0,0s-6.44,7.339-6,17,7.55,19.593,16,23,25.47,4.734,33-4,13.89-19.738,10-33-18.66-21.29-26-20-13.36,2.052-16,5c0,0,14.18-.212,21,5s12.27,22.1,4,30-18.3,7.585-26,3-9.48-11.273-10-16A44.8,44.8,0,0,1,1106,122Zm11,44s-15.15-1.732-23-15c0,0-7.08-11.642-6-21s3.38-22.276,17-29,23.26-11.633,42-1c0,0,10.48,5.977,14,21,0,0-8.2-11.83-14-14s-15.86-6.6-27-4-16.97,12.3-20,19-3.03,18.737-1,25a22.85,22.85,0,0,0,10,13S1115.89,165.144,1117,166Z"/>
  <path id="Фигура_17-4" data-name="Фигура 17" class="cls-1" d="M902.862,147.867s-4.93,5.693-4.6,13.188,5.788,15.2,12.259,17.842,19.516,3.672,25.282-3.1,10.639-15.312,7.662-25.6-14.293-16.516-19.92-15.515-10.233,1.591-12.258,3.879c0,0,10.861-.165,16.089,3.878s9.4,17.146,3.064,23.273a15.769,15.769,0,0,1-19.919,2.327,15.589,15.589,0,0,1-7.662-12.412A35.1,35.1,0,0,1,902.862,147.867Zm0,0s-4.93,5.693-4.6,13.188,5.788,15.2,12.259,17.842,19.516,3.672,25.282-3.1,10.639-15.312,7.662-25.6-14.293-16.516-19.92-15.515-10.233,1.591-12.258,3.879c0,0,10.861-.165,16.089,3.878s9.4,17.146,3.064,23.273a15.769,15.769,0,0,1-19.919,2.327,15.589,15.589,0,0,1-7.662-12.412A35.1,35.1,0,0,1,902.862,147.867ZM911.29,182s-11.606-1.343-17.621-11.636c0,0-5.423-9.032-4.6-16.291s2.59-17.281,13.024-22.5,17.823-9.024,32.178-.776c0,0,8.032,4.637,10.726,16.291,0,0-6.286-9.178-10.726-10.861s-12.15-5.12-20.686-3.1-13,9.539-15.323,14.74-2.321,14.535-.766,19.394a17.7,17.7,0,0,0,7.662,10.084S910.437,181.336,911.29,182Z"/>
  <path id="Фигура_4" data-name="Фигура 4" class="cls-2" d="M935,729s-100.713-3.471-132,106c0,0-18.152,84.751,44,137,0,0,40.207,40.56,112,31,0,0,58.97-8.752,95-68,0,0,36.94-41.212,12-115,0,0-20.93-52.632-49-64C1017,756,975.284,725.84,935,729Z"/>
  <path id="Фигура_2" data-name="Фигура 2" class="cls-2" d="M469,893H662L566,623Z"/>
  <path id="Фигура_31" data-name="Фигура 31" class="cls-3" d="M889,811"/>
  <path id="Фигура_34" data-name="Фигура 34" class="cls-1" d="M1003,2205h-4v11s-3.146-9.95-17-10-18.032,13.42-18,20,6.309,19.29,18,19,14.948-7.04,17-12v7s4.09,6.91,10,7,16.13-7.12,16-23-13.29-40.52-42-40-41.115,22.05-40,43,16.917,40,39,40c0,0,20.07-1.77,24-9l-4-3s-11.022,6.87-19,7-35.613-8.53-35-36,20.173-37.09,35-37,35.4,12.48,37,34c0,0-.6,13.15-5,16,0,0-3.49,3.15-6,3s-6.6-3.75-6-9S1003,2205,1003,2205Z"/>
  <path id="Фигура_35" data-name="Фигура 35" class="cls-3" d="M983,2211s13.276,1.28,14,13-8.7,15-13,15-14.091-4.76-14-13S975.349,2211.25,983,2211Z"/>
  <path id="Фигура_35-2" data-name="Фигура 35" class="cls-3" d="M1308.17,2204s19.63,1.88,20.75,19.45-12.81,22.53-19.17,22.55-20.85-7.09-20.75-19.45S1296.86,2204.41,1308.17,2204Z"/>
  <path id="Фигура_35-3" data-name="Фигура 35" class="cls-1" d="M1200.95,2198s26.5,2.57,27.94,26-17.37,29.99-25.95,30-28.12-9.52-27.94-26S1185.68,2198.51,1200.95,2198Z"/>
  <path id="Фигура_35-4" data-name="Фигура 35" class="cls-3" d="M1376.22,2204s19.63,1.93,20.7,19.5-12.87,22.49-19.22,22.5-20.84-7.14-20.7-19.5S1364.91,2204.38,1376.22,2204Z"/>
  <path id="Фигура_35-5" data-name="Фигура 35" class="cls-1" d="M1343.84,2244s3.93,0.41,4.14,4.18-2.57,4.82-3.84,4.82-4.17-1.53-4.14-4.18S1341.58,2244.08,1343.84,2244Z"/>
  <path id="Фигура_36" data-name="Фигура 36" class="cls-1" d="M1230,2199h6l19,45,21-45h6l-23,53h-7Z"/>
  <path id="Фигура_37" data-name="Фигура 37" class="cls-1" d="M1128,2252h6v-24h12l21,24h8l-24-26,23-27h-6l-22,24h-12v-43h-6v72Z"/>
  <path id="Фигура_38" data-name="Фигура 38" class="cls-1" d="M1075,2199h6l19,46,20-46h6l-30,70h-5l7-18Z"/>
  <path id="Фигура_35-6" data-name="Фигура 35" class="cls-3" d="M1437.28,2205s19.62,1.98,20.64,19.55-12.92,22.46-19.28,22.45-20.81-7.19-20.64-19.55S1425.96,2205.35,1437.28,2205Z"/>
  <path id="Фигура_35-7" data-name="Фигура 35" class="cls-1" d="M1551.84,2177s3.93,0.41,4.14,4.18-2.57,4.82-3.84,4.82-4.17-1.53-4.14-4.18S1549.58,2177.08,1551.84,2177Z"/>
  <path id="Фигура_35-8" data-name="Фигура 35" class="cls-1" d="M1534.84,2177s3.93,0.41,4.14,4.18-2.57,4.82-3.84,4.82-4.17-1.53-4.14-4.18S1532.58,2177.08,1534.84,2177Z"/>
  <path id="Фигура_35-9" data-name="Фигура 35" class="cls-3" d="M1589.22,2205s19.63,1.93,20.7,19.5-12.87,22.49-19.22,22.5-20.84-7.14-20.7-19.5S1577.91,2205.38,1589.22,2205Z"/>
  <path id="Фигура_27-2" data-name="Фигура 27" class="cls-2" d="M1746,1496s1.8-40.26,34-50,44.97,1.93,51,6,21.71,20.35,21,41-8.12,40.9-27,49-39.92,6.69-50,0-21.96-18.41-25-28S1747.58,1501.28,1746,1496Z"/>
  <path id="Фигура_43" data-name="Фигура 43" class="cls-2" d="M1298-399"/>
  <path id="Фигура_27-3" data-name="Фигура 27" class="cls-1" d="M1694,1383.72s0.36-8.02,6.73-9.97,8.91,0.39,10.1,1.2,4.3,4.06,4.16,8.17-1.61,8.16-5.34,9.77-7.91,1.33-9.91,0-4.35-3.67-4.95-5.58S1694.31,1384.77,1694,1383.72Z"/>
  <path id="Фигура_40" data-name="Фигура 40" class="cls-1" d="M1721,1215"/>
  <path id="Фигура_35-10" data-name="Фигура 35" class="cls-3" d="M1201.7,2205s20.12,1.97,21.22,19.96-13.19,23.03-19.7,23.04-21.36-7.31-21.22-19.96S1190.11,2205.39,1201.7,2205Z"/>
</svg>
